<?xml version="1.0" encoding="utf-8"?>
<!-- Generator: Adobe Illustrator 24.1.2, SVG Export Plug-In . SVG Version: 6.00 Build 0)  -->
<svg version="1.1" id="Layer_1" xmlns="http://www.w3.org/2000/svg" xmlns:xlink="http://www.w3.org/1999/xlink" x="0px" y="0px"
	 viewBox="0 0 144 144" style="enable-background:new 0 0 144 144;" xml:space="preserve">
<style type="text/css">
	.st0{fill:url(#SVGID_1_);}
	.st1{opacity:5.000000e-02;enable-background:new    ;}
	.st2{opacity:7.000000e-02;enable-background:new    ;}
	.st3{fill:#FFFFFF;}
</style>
<linearGradient id="SVGID_1_" gradientUnits="userSpaceOnUse" x1="13.228" y1="8.8228" x2="130.772" y2="135.1772">
	<stop  offset="0" style="stop-color:#0D61A9"/>
	<stop  offset="1" style="stop-color:#16528C"/>
</linearGradient>
<path class="st0" d="M121.1,138H22.9C13.6,138,6,130.4,6,121.1V22.9C6,13.6,13.6,6,22.9,6h98.2c9.3,0,16.9,7.6,16.9,16.9v98.2
	C138,130.4,130.4,138,121.1,138z"/>
<path class="st1" d="M75.7,123.3V83H61V61h14.7v-7.8c0-18.5,9.8-28.7,27.5-28.7c7.3,0,11.3,0.5,13.2,0.8l3.1,0.4l0.1,3.2v17.5h-13.3
	c-4.1,0-5,5.1-5,9.3V61h17.3l-3.4,22h-13.9v40.3H75.7z"/>
<path class="st2" d="M77.5,121.5V81.2H62.8V62.8h14.7v-9.7c0-17.6,8.9-26.8,25.7-26.8c7.2,0,11.1,0.5,13,0.7l1.6,0.2l0.1,1.6v15.6
	h-11.5c-6,0-6.8,7-6.8,11.1v7.2h17L113.8,81H99.5v40.3h-22V121.5z"/>
<path class="st3" d="M106.3,42.7h9.7V28.9c-1.8-0.2-5.6-0.7-12.8-0.7c-15,0-23.9,7.6-23.9,25v11.5H64.7v14.7h14.7v40.3h18.3V79.3
	h14.4l2.3-14.7H97.7v-9C97.7,48.8,99.9,42.7,106.3,42.7z"/>
</svg>
