<?xml version="1.0" encoding="utf-8"?>
<!-- Generator: Adobe Illustrator 24.1.2, SVG Export Plug-In . SVG Version: 6.00 Build 0)  -->
<svg version="1.1" id="Layer_1" xmlns="http://www.w3.org/2000/svg" xmlns:xlink="http://www.w3.org/1999/xlink" x="0px" y="0px"
	 viewBox="0 0 144 144" style="enable-background:new 0 0 144 144;" xml:space="preserve">
<style type="text/css">
	.st0{fill:url(#SVGID_1_);}
	.st1{fill:url(#SVGID_2_);}
	.st2{fill:#FFFFFF;}
</style>
<radialGradient id="SVGID_1_" cx="-137.0625" cy="314.9678" r="55.6799" gradientTransform="matrix(3 0 0 -3 466 1084)" gradientUnits="userSpaceOnUse">
	<stop  offset="0" style="stop-color:#FFDD55"/>
	<stop  offset="0.328" style="stop-color:#FF543F"/>
	<stop  offset="0.348" style="stop-color:#FC5245"/>
	<stop  offset="0.504" style="stop-color:#E64771"/>
	<stop  offset="0.643" style="stop-color:#D53E91"/>
	<stop  offset="0.761" style="stop-color:#CC39A4"/>
	<stop  offset="0.841" style="stop-color:#C837AB"/>
</radialGradient>
<path class="st0" d="M109.3,138.9L34.9,139c-16.4,0-29.8-13.4-29.8-29.7L5,34.9C5,18.5,18.4,5.1,34.7,5.1L109.1,5
	c16.4,0,29.8,13.4,29.8,29.7l0.1,74.4C139,125.5,125.6,138.9,109.3,138.9z"/>
<radialGradient id="SVGID_2_" cx="-146.48" cy="308.5233" r="36.9715" gradientTransform="matrix(3 0 0 -1.9989 466 620.0311)" gradientUnits="userSpaceOnUse">
	<stop  offset="0" style="stop-color:#4168C9"/>
	<stop  offset="0.999" style="stop-color:#4168C9;stop-opacity:0"/>
</radialGradient>
<path class="st1" d="M109.3,138.9L34.9,139c-16.4,0-29.8-13.4-29.8-29.7L5,34.9C5,18.5,18.4,5.1,34.7,5.1L109.1,5
	c16.4,0,29.8,13.4,29.8,29.7l0.1,74.4C139,125.5,125.6,138.9,109.3,138.9z"/>
<path class="st2" d="M72,98c-14.4,0-26-11.7-26-26s11.7-26,26-26s26,11.7,26,26S86.4,98,72,98z M72,53.4c-10.3,0-18.6,8.3-18.6,18.6
	S61.7,90.6,72,90.6S90.6,82.3,90.6,72S82.3,53.4,72,53.4z"/>
<circle class="st2" cx="99.9" cy="44.1" r="5.6"/>
<path class="st2" d="M94.3,120.4H49.7c-14.4,0-26-11.7-26-26V49.7c0-14.4,11.7-26,26-26h44.6c14.4,0,26,11.7,26,26v44.6
	C120.4,108.7,108.7,120.4,94.3,120.4z M49.7,31.1c-10.3,0-18.6,8.3-18.6,18.6v44.6c0,10.3,8.3,18.6,18.6,18.6h44.6
	c10.3,0,18.6-8.3,18.6-18.6V49.7c0-10.3-8.3-18.6-18.6-18.6H49.7z"/>
</svg>
