<?xml version="1.0" encoding="utf-8"?>
<!-- Generator: Adobe Illustrator 24.1.2, SVG Export Plug-In . SVG Version: 6.00 Build 0)  -->
<svg version="1.1" id="Layer_1" xmlns="http://www.w3.org/2000/svg" xmlns:xlink="http://www.w3.org/1999/xlink" x="0px" y="0px"
	 viewBox="0 0 250.4 250.4" style="enable-background:new 0 0 250.4 250.4;" xml:space="preserve">
<style type="text/css">
	.st0{fill:#2FB44A;}
	.st1{fill:#FFFFFF;}
	.st2{fill:#F47628;}
</style>
<g id="Layer_2_1_">
	<g id="Layer_1-2">
		<path class="st0" d="M242,195.3c0,25.8-20.9,46.7-46.7,46.7l0,0H55.1c-25.8,0-46.7-20.9-46.7-46.7V55.1
			c0-25.8,20.9-46.7,46.7-46.7h140.2c25.8,0,46.7,20.9,46.7,46.7c0,0,0,0,0,0V195.3z"/>
		<path class="st1" d="M193.6,26.2H56.7c-17.5,0-31.6,14.2-31.6,31.7v75.2c0,17.5,14.1,31.7,31.6,31.7c0,0,0,0,0,0h47.1l16.1,26.2
			c0.2,0.3,0.3,0.5,0.5,0.7c1.5,2.6,4.8,3.5,7.4,2c0.8-0.5,1.5-1.2,2-2c0.2-0.2,0.4-0.5,0.5-0.8l16.1-26.2h47.1
			c17.5,0,31.6-14.2,31.6-31.7c0,0,0,0,0,0V57.9C225.3,40.5,211.1,26.3,193.6,26.2C193.6,26.2,193.6,26.2,193.6,26.2z"/>
		<path class="st2" d="M69.6,81.3c-3.9,0.3-7.6,2-10.4,4.8V66.7H46.9v51h12.4v-4c0,0,2.9,5.3,10.3,5.3c0,0,17.3-0.6,17.3-19
			C86.8,100,86.2,81.3,69.6,81.3z M66.9,108.3c-4.3,0-7.9-3.5-7.9-7.9c0-4.3,3.5-7.9,7.9-7.9c4.3,0,7.9,3.5,7.9,7.9c0,0,0,0,0,0
			C74.7,104.7,71.2,108.3,66.9,108.3z"/>
		<path class="st2" d="M90.8,65.6v11.8c0,0,5.6-0.3,5.6,10.2v30.2h11.8v-33C108.2,84.8,108.7,65.6,90.8,65.6z"/>
		<path class="st2" d="M137,81.5c0,0-20.2,0-20.2,18.9c0,0-0.7,18.7,20.2,18.7c0,0,20.7,0,20.7-18.7
			C157.7,100.4,158.4,81.5,137,81.5z M137,108.3c-4.3,0-7.9-3.5-7.9-7.9c0-4.3,3.5-7.9,7.9-7.9c4.3,0,7.9,3.5,7.9,7.9c0,0,0,0,0,0
			C144.9,104.7,141.4,108.3,137,108.3z"/>
		<path class="st2" d="M191.5,82.7v3.4c-2.6-3-6.3-4.7-10.3-4.7c0,0-17.3-0.7-17.3,18.8c0,0-0.2,18.2,16.9,18.2c0,0,7,0.3,10.8-4.7
			v2.8c0,0,0.9,8.9-7.8,8.9h-2.9v10.8h4.8c0,0,17.9,0.2,17.9-19.1V82.7L191.5,82.7z M184.2,108.3c-4.3,0-7.9-3.5-7.9-7.9
			c0-4.3,3.5-7.9,7.9-7.9s7.9,3.5,7.9,7.9c0,0,0,0,0,0C192.1,104.7,188.6,108.3,184.2,108.3C184.2,108.3,184.2,108.3,184.2,108.3
			L184.2,108.3z"/>
	</g>
</g>
</svg>
