<?xml version="1.0" encoding="utf-8"?>
<!-- Generator: Adobe Illustrator 24.1.2, SVG Export Plug-In . SVG Version: 6.00 Build 0)  -->
<svg version="1.1" id="Layer_1" xmlns="http://www.w3.org/2000/svg" xmlns:xlink="http://www.w3.org/1999/xlink" x="0px" y="0px"
	 viewBox="0 0 62.4 62.4" style="enable-background:new 0 0 62.4 62.4;" xml:space="preserve">
<style type="text/css">
	.st0{fill:#0099D9;}
	.st1{fill:#00B3E6;}
	.st2{fill:#5DC7D0;}
</style>
<g id="Layer_2_1_">
	<g id="_Layer_">
		<path class="st0" d="M35.1,53.3c-14.8-0.1-26.6-12.2-26.5-27c0.1-10.5,6.3-20,16-24.2l-0.1-0.3c-16,3.7-26,19.6-22.3,35.6
			s19.6,26,35.6,22.3C49.7,57,58.7,47.3,60.5,35.3l-0.3-0.1C56.6,46,46.5,53.3,35.1,53.3z"/>
		<path class="st1" d="M25.8,7.2C15.5,13.9,12.5,27.6,19.1,38c6.5,10.3,20,13.3,30.3,6.9c0.9-0.6,1.8-1.2,2.6-1.9l-0.2-0.3
			c-9.2,5.1-20.7,2.2-26.3-6.7c-5.9-9.3-3.2-21.7,6-27.7c4-2.6,8.8-3.6,13.5-3L45.1,5C38.7,2.7,31.5,3.5,25.8,7.2z"/>
		<path class="st2" d="M30.3,22.1c-2.2,8.2,2.6,16.7,10.8,18.9c1.2,0.3,2.3,0.5,3.5,0.5v-0.4h-0.1c-7.2-1.9-11.5-9.2-9.6-16.4
			c1.9-7.1,9.2-11.3,16.3-9.4c0,0,0,0,0.1,0c3.3,0.9,6.1,2.9,7.9,5.8v0.1c0.2,0.3,0.3,0.5,0.5,0.8l0.3-0.1c-0.4-1.6-1.1-3.1-2.1-4.5
			c-0.4-0.6-0.8-1.1-1.3-1.7c-5.6-6.4-15.3-7-21.7-1.4C32.8,16.4,31.1,19.1,30.3,22.1z"/>
	</g>
</g>
</svg>
